<svg xmlns="http://www.w3.org/2000/svg" width="30" height="29.23" viewBox="0 0 30 29.23">
  <defs>
  </defs>
  <g id="talk-bubbles-solid-badged" transform="translate(-2 -1)">
    <path id="패스_625" data-name="패스 625" class="cls-1" d="M7.484,18.312V11H4.742A2.742,2.742,0,0,0,2,13.742V30.194a.893.893,0,0,0,1.426.722l4.707-3.464H20.417a2.532,2.532,0,0,0,2.6-2.623V23.8H12.968a5.484,5.484,0,0,1-5.484-5.484Z" transform="translate(0 -0.86)"/>
    <path id="패스_626" data-name="패스 626" class="cls-1" d="M28.366,12.683A6.837,6.837,0,0,1,21.767,4H13.742A2.742,2.742,0,0,0,11,6.742V17.71a2.742,2.742,0,0,0,2.742,2.742H26.127L30.5,23.843a.894.894,0,0,0,1.435-.722V11.65A6.809,6.809,0,0,1,28.366,12.683Z" transform="translate(-0.936 -0.258)"/>
    <path id="패스_627" data-name="패스 627" class="cls-1" d="M34.14,5.57A4.57,4.57,0,1,1,29.57,1a4.57,4.57,0,0,1,4.57,4.57Z" transform="translate(-2.14 0)"/>
  </g>
</svg>
