<svg xmlns="http://www.w3.org/2000/svg" width="31.498" height="23.103" viewBox="0 0 31.498 23.103">
  <defs>
  </defs>
  <path id="game-controller" class="cls-1" d="M31.78,16.478c-1.392-6.292-3.487-9.651-6.594-10.569a7.031,7.031,0,0,0-2.011-.284,9.048,9.048,0,0,0-2.513.452,12.825,12.825,0,0,1-3.787.6,12.826,12.826,0,0,1-3.79-.6,9.053,9.053,0,0,0-2.51-.452,7.6,7.6,0,0,0-2.082.284C5.4,6.822,3.308,10.18,1.9,16.474c-1.519,6.774-.771,11.051,2.1,12.043a3.715,3.715,0,0,0,1.224.211c1.964,0,3.539-1.636,4.615-2.975,1.216-1.516,2.639-2.285,7.044-2.285,3.934,0,5.563.534,6.968,2.285A9.6,9.6,0,0,0,26.4,28.109a3.849,3.849,0,0,0,3.292.418c1.694-.578,2.666-2.107,2.888-4.543A25.673,25.673,0,0,0,31.78,16.478Zm-18.055-.353h-2.1v2.1a1.05,1.05,0,0,1-2.1,0v-2.1h-2.1a1.05,1.05,0,1,1,0-2.1h2.1v-2.1a1.05,1.05,0,1,1,2.1,0v2.1h2.1a1.05,1.05,0,1,1,0,2.1Zm5.512.262a1.312,1.312,0,1,1,1.312-1.312A1.312,1.312,0,0,1,19.237,16.387Zm2.888,2.888a1.312,1.312,0,1,1,1.312-1.309,1.312,1.312,0,0,1-1.312,1.309Zm0-5.775a1.312,1.312,0,1,1,1.312-1.312A1.312,1.312,0,0,1,22.125,13.5Zm2.888,2.888a1.312,1.312,0,1,1,1.312-1.312A1.312,1.312,0,0,1,25.013,16.387Z" transform="translate(-1.127 -5.625)"/>
</svg>
